<svg version="1.1" id="Layer_1" xmlns="http://www.w3.org/2000/svg" xmlns:xlink="http://www.w3.org/1999/xlink" x="0px" y="0px"
	 width="100%" viewBox="0 100 1024 450" enable-background="new 0 0 1024 704" xml:space="preserve">
<path fill="#000000" opacity="1.000000" stroke="none" 
	d="
M572.614563,410.660675 
	C561.842957,412.148315 551.421204,413.748840 541.045898,410.890930 
	C538.003174,410.052795 536.420166,411.113129 534.845764,413.440552 
	C529.805847,420.890686 524.745911,428.336029 518.755554,435.080994 
	C491.938538,465.276123 458.849426,486.043701 421.329620,500.320740 
	C390.239655,512.151123 358.079132,518.196350 324.950470,516.085022 
	C245.763092,511.038330 182.668167,477.398712 139.798218,409.137787 
	C138.616837,407.256683 136.842392,405.462524 137.650253,402.549438 
	C141.263580,402.810852 142.456055,405.741302 143.940628,408.117218 
	C160.190796,434.124023 181.392181,455.262756 206.942322,472.074066 
	C238.017044,492.520386 272.235687,504.145844 309.171692,507.827118 
	C350.679199,511.964050 391.074402,507.076477 429.547302,490.710785 
	C466.551880,474.969727 497.703522,451.185883 522.345032,419.183441 
	C524.874695,415.898163 527.359802,412.578674 530.061646,409.016632 
	C527.522217,406.894165 524.576233,406.269684 521.824890,405.336334 
	C506.750397,400.222839 496.645660,390.797852 494.248871,374.354584 
	C492.565643,362.806915 495.722931,352.962585 505.209900,346.138885 
	C515.016724,339.085114 526.127441,337.034821 537.262756,342.780640 
	C546.394470,347.492645 549.568665,356.168976 550.312500,366.055847 
	C551.304871,379.247437 548.037476,391.434357 541.356934,403.906219 
	C550.335205,405.458618 558.429382,404.556244 567.666321,404.589813 
	C561.993286,396.808350 557.946899,389.423004 556.466736,380.962067 
	C554.508057,369.765991 556.419495,359.102661 561.421509,348.984406 
	C562.288818,347.229919 563.587952,345.594604 564.993591,344.216309 
	C572.015747,337.330811 590.993896,335.130981 601.054688,339.924225 
	C610.448486,344.399719 616.255798,355.748840 615.759583,367.408051 
	C615.036865,384.390533 607.459656,396.509460 591.680847,403.303192 
	C589.106934,404.411438 586.703674,405.916321 584.529907,407.073669 
	C584.086853,408.280334 584.552856,408.758362 585.076050,409.167603 
	C600.926270,421.565765 617.530701,432.021820 637.787170,436.424072 
	C658.548218,440.935974 679.215149,445.192719 700.534302,443.624237 
	C724.155823,441.886383 756.230347,432.375183 773.900879,412.796478 
	C769.513794,411.838043 764.926086,412.356049 760.813660,409.988098 
	C762.781128,406.909576 765.568237,406.738861 768.099792,406.792419 
	C773.791077,406.912933 779.409119,406.610565 784.970825,405.381531 
	C788.790710,404.537415 790.666138,406.416931 791.141357,409.977692 
	C791.663513,413.889893 790.869324,417.700836 789.104370,421.123627 
	C786.490356,426.193237 781.223572,426.043854 777.703735,420.774841 
	C774.617615,421.726257 772.595093,424.267365 770.273743,426.275848 
	C757.913757,436.969879 742.541565,440.193146 727.335632,444.042328 
	C688.435791,453.889313 650.639221,448.396118 613.444641,435.841248 
	C600.026672,431.312103 588.845093,422.663391 577.948242,413.800903 
	C576.422058,412.559570 575.192322,410.832062 572.614563,410.660675 
M589.862610,397.396057 
	C604.628479,388.085876 609.909302,370.575623 602.531738,355.313141 
	C598.869629,347.736938 593.231995,343.578003 584.383728,343.850372 
	C575.955383,344.109833 571.241699,348.838287 568.314026,355.928955 
	C563.223267,368.258636 564.228455,380.219086 570.517578,392.000366 
	C576.843445,403.850647 577.269714,404.140106 589.862610,397.396057 
M525.184082,400.415253 
	C526.133545,400.726746 527.120422,400.955261 528.026184,401.363617 
	C532.891235,403.556976 535.841553,402.260468 538.092224,397.185455 
	C543.678101,384.589935 544.351074,371.767120 540.784851,358.670685 
	C539.389038,353.544281 536.325623,349.492889 531.226379,347.127289 
	C522.342529,343.006012 507.641693,347.470947 504.300507,362.358032 
	C500.914795,377.443451 508.885773,392.739197 525.184082,400.415253 
z"/>
<path fill="#000000" opacity="1.000000" stroke="none" 
	d="
M221.554688,258.800293 
	C225.878937,255.985703 230.257187,257.897888 234.463623,257.808685 
	C249.426331,257.491425 264.008423,259.849030 277.759918,265.973999 
	C285.416840,269.384430 292.606323,273.605896 296.923218,281.304596 
	C300.704254,288.047607 301.068085,294.838623 297.366394,301.759277 
	C290.665344,314.287323 280.081573,322.279297 267.103027,327.244629 
	C260.630554,329.720886 253.895920,331.511871 247.079666,333.676422 
	C258.958374,346.751617 270.648712,359.675140 282.404968,372.538391 
	C289.145447,379.913513 296.051849,387.137695 302.742950,394.556641 
	C304.087128,396.046967 306.418121,397.671661 305.250732,400.074066 
	C304.075470,402.492676 301.391693,402.306061 299.043945,402.303223 
	C292.044739,402.294739 286.825317,398.888214 282.126617,393.981262 
	C267.146210,378.337036 252.822433,362.110474 238.703842,345.695465 
	C237.636749,344.454834 236.545029,343.235352 235.159256,341.658417 
	C234.110428,343.854614 234.379105,345.811340 234.373810,347.692749 
	C234.324661,365.180908 234.303268,382.669189 234.279022,400.157410 
	C234.269913,406.739929 232.881958,408.327026 227.134628,408.289062 
	C220.225784,408.243378 217.628906,405.993713 217.712341,399.749451 
	C218.257416,358.955109 219.196625,318.166382 219.035568,277.361938 
	C219.011597,271.291290 219.050873,265.016846 221.554688,258.800293 
M258.723328,266.931122 
	C250.915375,265.233917 243.063492,264.690796 235.344559,265.559662 
	C235.344559,286.875824 235.344559,307.716644 235.344559,329.141998 
	C240.747131,327.484711 245.558258,326.259094 250.187073,324.542023 
	C264.031677,319.406311 274.634430,310.473267 280.736694,296.858704 
	C285.051392,287.232330 282.452667,278.579498 274.312683,272.601685 
	C269.868591,269.338013 264.904388,267.781860 258.723328,266.931122 
z"/>
<path fill="#000000" opacity="1.000000" stroke="none" 
	d="
M807.411865,287.690308 
	C820.355286,322.581085 828.905151,358.395752 839.567139,393.570435 
	C841.004822,398.313477 838.860596,400.055878 834.851440,400.911133 
	C827.922852,402.389191 823.446838,399.393402 821.744507,392.353027 
	C817.790405,376.000153 812.290466,360.095337 807.637512,343.944733 
	C806.860779,341.248657 805.406311,340.292175 802.492310,340.663055 
	C792.411072,341.946106 782.282532,342.912231 772.108459,342.179626 
	C769.443115,341.987701 768.678955,343.068634 768.104919,345.347198 
	C763.920410,361.957306 759.576965,378.527466 755.399292,395.139252 
	C753.996643,400.716522 747.552734,403.704407 742.543823,400.887421 
	C740.390015,399.676086 740.294678,397.849731 740.769836,395.718048 
	C750.436340,352.347015 761.605103,309.380402 775.373779,267.114075 
	C775.938538,265.380127 776.692871,263.702637 777.435974,262.033142 
	C779.167053,258.143799 781.619141,255.216156 786.396423,255.365952 
	C793.206604,255.579498 796.932251,257.822693 798.895874,263.284607 
	C801.766785,271.270142 804.497986,279.305908 807.411865,287.690308 
M785.490662,279.424622 
	C781.138245,295.878235 776.785828,312.331848 772.316956,329.225769 
	C780.279480,328.672546 787.075867,329.342743 793.887939,329.608368 
	C803.608459,329.987427 803.613647,329.861420 800.831848,320.735901 
	C797.142029,308.631439 793.486145,296.516418 789.732544,284.431793 
	C788.972961,281.986542 788.813660,279.262634 786.835754,276.916534 
	C786.377502,277.724091 786.068359,278.268829 785.490662,279.424622 
z"/>
<path fill="#000000" opacity="1.000000" stroke="none" 
	d="
M149.021439,369.314484 
	C135.453659,369.378754 135.416138,369.378540 135.340225,382.462769 
	C135.321732,385.650787 134.904083,388.757843 134.290070,391.864685 
	C133.932083,393.676086 133.078415,394.919861 131.111893,395.165009 
	C129.143600,395.410400 127.975418,394.415619 127.214630,392.743286 
	C124.941635,387.746765 122.689369,382.740662 120.373856,377.763947 
	C120.044037,377.055054 119.408493,376.488373 118.661018,375.531464 
	C113.135185,379.044556 108.835968,383.703064 104.139595,387.825378 
	C96.995430,394.096191 89.604622,399.998688 81.672523,405.243988 
	C78.256912,407.502686 74.805656,408.306732 70.642776,406.820343 
	C71.746765,399.595276 72.818344,392.595306 73.885696,385.594666 
	C77.487946,361.968079 80.983376,338.324402 84.751228,314.724243 
	C85.954018,307.190521 87.802734,299.754883 89.494972,292.305939 
	C90.908310,286.084686 95.305618,284.128235 100.862236,287.602234 
	C106.638588,291.213593 112.240623,295.153137 117.636345,299.315430 
	C141.788467,317.946533 164.736862,337.929962 185.355515,360.479309 
	C187.002930,362.281006 188.918900,364.003662 188.886261,366.905731 
	C186.393524,368.861938 183.518936,369.295441 180.481674,369.291412 
	C170.160217,369.277679 159.838699,369.301605 149.021439,369.314484 
M116.367088,367.766357 
	C118.085228,366.824524 119.803368,365.882690 121.605232,364.894928 
	C113.163460,343.453522 104.429909,322.438354 96.912140,299.789246 
	C91.228859,332.720825 87.504089,364.778595 80.538498,396.384583 
	C82.631004,395.314270 84.121536,394.021240 85.651077,392.776184 
	C95.705177,384.592407 104.580948,374.970551 116.367088,367.766357 
M155.771973,342.725952 
	C138.388306,326.320984 120.757713,310.203278 101.572281,295.787109 
	C110.412582,317.110077 119.743889,338.036102 127.283592,359.682587 
	C128.217651,362.364258 129.622238,362.878174 132.153259,362.404633 
	C137.051071,361.488312 142.011551,361.048187 146.977127,360.562897 
	C155.705826,359.709808 164.465698,359.901520 174.373322,359.557739 
	C167.125229,354.354248 161.907120,348.572571 155.771973,342.725952 
M126.493118,375.977264 
	C127.032837,377.312408 127.572556,378.647583 128.275742,380.387085 
	C129.822815,370.216583 128.983795,368.063324 123.899345,369.381256 
	C124.694183,371.381409 125.475540,373.347656 126.493118,375.977264 
z"/>
<path fill="#000000" opacity="1.000000" stroke="none" 
	d="
M902.991272,260.687408 
	C906.986633,260.781677 910.487061,260.812378 913.980896,260.980652 
	C917.044556,261.128204 919.830444,262.120605 920.013611,265.662354 
	C920.204285,269.349976 916.860718,269.624329 914.392944,270.108612 
	C909.635254,271.042206 904.794067,270.605408 899.963440,270.437866 
	C893.901917,270.227570 893.559753,270.994385 893.447632,276.853943 
	C892.880859,306.496918 892.145264,336.136597 891.538635,365.778900 
	C891.412598,371.936340 891.541870,378.100433 891.632019,384.260315 
	C891.681030,387.608429 893.216797,388.904877 896.760437,388.351135 
	C902.043884,387.525543 907.378601,387.787689 912.689636,388.590759 
	C915.573120,389.026825 919.041016,389.221466 918.669983,393.007446 
	C918.308716,396.693481 915.515930,398.461273 911.541077,398.417786 
	C896.877747,398.257385 882.209717,398.415924 867.549561,398.136017 
	C861.212463,398.015015 854.954102,399.794128 848.636292,398.723511 
	C846.834900,398.418213 844.196472,398.386871 844.730774,395.356049 
	C845.129761,393.092499 845.587341,390.668488 848.736938,390.478821 
	C850.559998,390.369049 852.365417,389.871490 854.185669,389.826141 
	C859.682556,389.689178 865.188660,389.513763 870.679810,389.695618 
	C874.295227,389.815369 875.649414,388.590240 875.786194,384.870056 
	C876.759399,358.384796 877.084534,331.888763 876.481506,305.401764 
	C876.273315,296.256409 875.795288,287.099701 875.572632,277.941772 
	C875.418762,271.615234 875.061829,271.376556 868.505920,271.320892 
	C862.007568,271.265747 855.503174,271.323578 849.014465,271.037079 
	C846.699463,270.934906 843.748596,270.984802 843.723633,267.213654 
	C843.698547,263.414185 846.243225,263.003479 849.092224,262.888458 
	C866.893311,262.169678 884.653442,260.458466 902.991272,260.687408 
z"/>
<path fill="#000000" opacity="1.000000" stroke="none" 
	d="
M664.749268,362.311798 
	C663.909180,359.234863 663.934814,355.526062 660.947205,354.791016 
	C657.909363,354.043579 656.409180,357.552185 654.441162,359.461304 
	C651.241455,362.565247 650.938965,366.437012 651.527893,370.562286 
	C652.640686,378.357361 652.596497,386.140045 651.355896,393.931244 
	C651.060669,395.785309 650.463013,397.451996 649.648315,399.100647 
	C648.309387,401.810059 646.426819,403.942230 643.192383,403.762970 
	C639.979431,403.584839 638.899292,400.750488 637.998047,398.328003 
	C634.841003,389.842682 633.900879,380.872620 632.779419,371.970673 
	C631.950073,365.387939 630.904114,358.810364 631.534241,352.111359 
	C631.875916,348.478912 632.250549,345.048157 636.546753,343.908722 
	C642.138794,342.425659 646.482239,343.848511 649.169067,348.049774 
	C649.433411,348.463074 649.715698,348.864929 650.240479,349.644745 
	C656.479736,347.775848 663.003479,345.530701 669.549561,347.699097 
	C675.772766,349.760529 681.310120,348.645294 687.571594,347.342621 
	C700.739380,344.602936 712.461487,347.754974 717.276428,359.320953 
	C718.768982,362.906311 719.352295,366.687347 719.686462,370.489532 
	C720.268005,377.105713 720.890930,383.735291 721.024414,390.368744 
	C721.142151,396.223602 717.842590,399.770721 712.658081,400.282349 
	C706.815125,400.858948 701.963501,397.642670 700.665405,392.133362 
	C698.409119,382.557343 698.300781,372.675842 696.647766,363.013611 
	C696.154846,360.132416 696.102600,357.025330 693.789062,354.779358 
	C686.714966,357.379333 684.289246,360.813293 684.310181,368.010315 
	C684.325195,373.172058 684.160339,378.339478 684.353638,383.493927 
	C684.520203,387.936310 682.759766,391.618439 680.358398,395.059753 
	C678.010376,398.424683 672.748352,398.031677 670.178589,394.737762 
	C665.944336,389.310303 666.542114,382.822540 665.880249,376.621216 
	C665.387451,372.004181 666.139587,367.284119 664.749268,362.311798 
z"/>
<path fill="#000000" opacity="1.000000" stroke="none" 
	d="
M315.092773,370.459961 
	C321.153564,355.313782 333.792969,349.356445 347.928040,345.929535 
	C355.472351,344.100494 363.272705,343.242798 371.173065,344.648407 
	C381.622345,346.507477 388.828369,353.912323 389.316101,363.579376 
	C389.482971,366.886719 388.327972,369.008453 385.213745,370.109863 
	C381.580353,371.394867 377.844757,372.130981 373.998322,372.275604 
	C364.023682,372.650665 354.047058,372.974365 344.073639,373.378693 
	C337.174469,373.658386 336.325531,374.914948 338.194489,381.714478 
	C341.121948,392.364929 348.269318,398.648468 358.732513,401.391174 
	C363.495605,402.639740 367.965332,401.340088 372.254395,399.284637 
	C377.828522,396.613342 383.620056,394.561340 389.646606,393.212341 
	C392.693970,392.530151 395.784698,392.069153 398.775909,393.345947 
	C399.237305,396.035400 397.259064,396.930481 395.815735,397.668732 
	C378.409943,406.571381 360.303802,411.991089 340.575745,407.280731 
	C327.088501,404.060455 316.234741,391.848969 314.467743,378.751007 
	C314.100403,376.028168 314.588715,373.459961 315.092773,370.459961 
M340.183167,364.527344 
	C338.765564,367.885803 341.119293,367.815247 343.170288,367.603424 
	C349.108765,366.990082 355.052155,366.707764 361.021545,366.652069 
	C363.395142,366.629913 365.968933,367.443756 368.108948,365.825531 
	C368.662445,364.098724 367.869415,362.723816 367.374237,361.380035 
	C363.527954,350.942474 354.775604,348.758514 346.531281,356.097046 
	C344.024689,358.328247 341.933075,360.859467 340.183167,364.527344 
z"/>
<path fill="#000000" opacity="1.000000" stroke="none" 
	d="
M412.742981,353.929840 
	C408.768372,353.904022 405.014618,354.865326 401.845276,351.677155 
	C404.730164,348.110840 408.826904,348.302094 412.395447,347.893005 
	C428.649567,346.029633 444.993927,346.704773 461.303894,346.782990 
	C468.491913,346.817444 470.368134,350.357727 467.315643,356.943237 
	C464.897369,362.160400 461.134155,366.411926 457.272430,370.552002 
	C449.550903,378.830048 441.458679,386.731415 432.188965,394.128571 
	C434.482574,395.226501 436.454865,394.831757 438.330444,394.832581 
	C448.824097,394.837219 459.317902,394.802704 469.811371,394.737885 
	C472.989441,394.718262 476.145813,394.808594 479.213257,395.723724 
	C480.774506,396.189514 482.853119,396.397247 482.973877,398.413330 
	C483.096588,400.461670 481.081940,400.886902 479.527222,401.431519 
	C472.973999,403.726837 466.061676,403.916779 459.302277,403.980591 
	C444.988892,404.115753 430.665741,403.631256 416.353638,403.178833 
	C413.148315,403.077515 408.611664,403.582245 407.396576,400.284729 
	C406.153259,396.910461 410.558228,395.312744 412.801392,393.381409 
	C425.911957,382.093597 435.493683,367.876892 447.210388,353.575287 
	C434.915100,353.232178 424.062408,353.044647 412.742981,353.929840 
z"/>
</svg>